<svg version="1.1" id="Layer_1" xmlns="http://www.w3.org/2000/svg" xmlns:xlink="http://www.w3.org/1999/xlink" x="0px" y="0px"
	 width="100%" viewBox="1880 1900 2510 2450" enable-background="new 1880 1900 2510 2450" xml:space="preserve">

<path fill="#00BF63" opacity="1.000000" stroke="none" 
	d="
M3564.000000,4348.247070 
	C3320.704590,4348.247070 3079.408447,4347.984863 2838.113770,4348.380371 
	C2745.399170,4348.532227 2654.962402,4334.437500 2566.506836,4307.545898 
	C2404.999023,4258.445801 2265.430420,4172.817383 2148.861084,4050.930176 
	C2022.353882,3918.651611 1939.979736,3762.668213 1903.551880,3582.846680 
	C1888.399170,3508.047607 1881.589966,3432.514893 1885.397705,3356.343018 
	C1897.054199,3123.160645 1981.179810,2919.843018 2139.041748,2747.533691 
	C2215.929688,2663.609375 2305.811279,2596.399658 2407.115479,2544.848633 
	C2493.736328,2500.769531 2585.177490,2470.827637 2681.324707,2455.280762 
	C2733.428467,2446.855957 2785.716797,2442.665283 2838.469727,2442.746826 
	C2975.781250,2442.958496 3113.093262,2442.811035 3250.405029,2442.850586 
	C3258.289062,2442.853027 3266.173096,2443.242676 3275.004639,2443.477051 
	C3275.844971,2449.001953 3277.110596,2453.419189 3277.100830,2457.833740 
	C3276.920166,2540.476562 3277.738525,2623.144775 3275.888672,2705.752441 
	C3274.625488,2762.166992 3256.739258,2814.572510 3226.061523,2861.938721 
	C3170.348877,2947.958496 3091.520020,2998.597900 2989.805420,3012.758301 
	C2975.347412,3014.770996 2960.618408,3015.379150 2945.999756,3015.593262 
	C2909.348145,3016.130127 2872.682373,3015.717529 2836.032715,3016.320557 
	C2762.952148,3017.523193 2695.391846,3037.934326 2634.280029,3077.844238 
	C2545.952148,3135.527344 2487.632080,3215.516357 2467.034668,3319.317139 
	C2441.257812,3449.223145 2475.229492,3563.539062 2566.534424,3659.878906 
	C2617.888672,3714.064453 2680.916016,3748.488281 2753.425537,3765.705078 
	C2780.097412,3772.037842 2807.239502,3775.533203 2834.585693,3775.588623 
	C2975.896240,3775.875488 3117.207764,3775.727783 3258.518799,3775.694824 
	C3263.155762,3775.693848 3267.792725,3775.299561 3273.489502,3775.040283 
	C3274.422607,3771.320557 3275.854492,3767.701172 3276.141113,3763.993164 
	C3276.601807,3758.027832 3276.328369,3752.004395 3276.328369,3746.005371 
	C3276.333008,3611.359863 3275.915527,3476.712646 3276.479736,3342.069580 
	C3276.851807,3253.274902 3309.192871,3177.072754 3371.075928,3113.542236 
	C3425.752686,3057.410645 3492.793945,3026.332275 3570.192627,3016.890869 
	C3578.105713,3015.925781 3586.156006,3015.785156 3594.143066,3015.777100 
	C3672.797363,3015.698486 3751.451904,3015.713623 3830.106201,3015.760498 
	C3835.348877,3015.763672 3840.591064,3016.239746 3846.951416,3016.550781 
	C3847.735596,3020.730225 3848.818604,3024.424316 3849.041748,3028.169678 
	C3849.397705,3034.148682 3849.204834,3040.162109 3849.205078,3046.160889 
	C3849.208252,3470.094482 3849.212158,3894.027832 3849.182861,4317.961426 
	C3849.182373,4327.165527 3848.802979,4336.369629 3848.605713,4345.339355 
	C3840.539062,4349.772461 3833.061768,4348.149414 3825.948975,4348.160645 
	C3739.299561,4348.293945 3652.649658,4348.247070 3564.000000,4348.247070 
z"/>
<path fill="#00BF63" opacity="1.000000" stroke="none" 
	d="
M4031.808350,2259.792236 
	C4032.274170,2265.069824 4033.145020,2270.347168 4033.146729,2275.625000 
	C4033.209717,2457.415283 4033.192383,2639.205322 4033.168945,2820.995605 
	C4033.168457,2823.655762 4032.951660,2826.316162 4032.271729,2830.669434 
	C4031.707764,2832.362793 4031.927002,2832.132812 4031.927002,2832.132812 
	C3905.969727,2832.181396 3780.010986,2831.876953 3654.055664,2832.402100 
	C3569.193359,2832.755859 3495.271240,2862.227783 3432.364258,2919.180908 
	C3423.973877,2926.777344 3415.842773,2934.675049 3407.833252,2942.675049 
	C3339.461426,3010.965576 3271.050293,3079.217041 3202.897217,3147.725342 
	C3189.761475,3160.929443 3176.928467,3174.584229 3165.290039,3189.100830 
	C3124.639160,3239.805908 3101.062256,3297.679443 3095.058350,3362.486816 
	C3093.893555,3375.061768 3093.331787,3387.733887 3093.292725,3400.363770 
	C3093.110840,3459.010498 3093.255371,3517.658203 3093.151611,3576.305420 
	C3093.138916,3583.446777 3094.276611,3590.846680 3090.595215,3598.674805 
	C3085.942383,3599.021240 3081.430420,3599.583496 3076.910156,3599.661133 
	C2948.315918,3601.864990 2714.793701,3600.764160 2694.221924,3597.731934 
	C2693.649658,3594.336426 2692.691162,3590.590088 2692.458252,3586.799316 
	C2692.132080,3581.486816 2692.331543,3576.141357 2692.331299,3570.809814 
	C2692.328857,3455.514648 2692.307373,3340.219238 2692.379639,3224.924072 
	C2692.384521,3217.084229 2691.331543,3209.060303 2694.044678,3201.284668 
	C2701.489746,3197.680176 2708.906982,3198.885010 2716.062500,3198.872070 
	C2776.042725,3198.764404 2836.023682,3199.027100 2896.002686,3198.759033 
	C2986.894287,3198.353271 3065.495605,3166.636963 3130.218750,3103.003174 
	C3208.153809,3026.379883 3285.080811,2948.728027 3362.160400,2871.239014 
	C3409.953125,2823.192383 3440.808350,2765.838379 3453.723389,2699.173340 
	C3457.652344,2678.892334 3459.767090,2658.385498 3459.743408,2637.615967 
	C3459.600586,2512.989014 3459.713135,2388.362305 3459.752441,2261.964355 
	C3459.764160,2260.193115 3459.541992,2260.400879 3459.541992,2260.400879 
	C3464.793945,2259.875732 3470.045898,2258.894043 3475.298096,2258.891846 
	C3657.056396,2258.817627 3838.814453,2258.834717 4020.572754,2258.855469 
	C4023.232422,2258.855713 4025.892334,2259.069824 4030.283691,2259.585205 
	C4032.015625,2259.986572 4031.808350,2259.792236 4031.808350,2259.792236 
z"/>
<path fill="#00BE62" opacity="1.000000" stroke="none" 
	d="
M4032.112793,2260.090088 
	C4032.413574,2145.609131 4032.612305,2031.024536 4032.892822,1916.440186 
	C4032.895508,1915.287842 4033.978760,1914.138062 4035.035400,1912.036133 
	C4039.707764,1911.654175 4044.927002,1910.936035 4050.157227,1910.842407 
	C4173.232910,1908.638306 4359.903320,1909.729004 4381.087891,1912.928223 
	C4381.615234,1916.889160 4382.659668,1921.268555 4382.703125,1925.657959 
	C4382.895996,1944.977783 4382.804199,1964.300415 4382.807129,1983.622070 
	C4382.818848,2066.905029 4382.855469,2150.188232 4382.795410,2233.471191 
	C4382.789551,2241.344727 4383.730957,2249.371338 4380.994141,2257.717773 
	C4373.863770,2260.844971 4366.487305,2259.653564 4359.379883,2259.664307 
	C4290.754883,2259.767822 4222.129395,2259.696045 4153.504395,2259.739258 
	C4114.196777,2259.763916 4074.889160,2259.908447 4033.694824,2259.895752 
	C4031.808350,2259.792236 4032.015625,2259.986572 4032.112793,2260.090088 
z"/>
<path fill="#00BE62" opacity="1.000000" stroke="none" 
	d="
M4031.595703,2832.475098 
	C4036.776855,2832.296875 4042.069824,2831.754639 4047.363037,2831.752197 
	C4151.225098,2831.702881 4255.086914,2831.685547 4358.948730,2831.783936 
	C4366.097656,2831.790771 4373.492188,2830.490234 4380.180664,2833.441650 
	C4383.868164,2850.427002 4385.278320,3034.721680 4382.747070,3163.031738 
	C4382.645508,3168.187500 4381.754395,3173.327637 4381.251465,3178.276367 
	C4378.208008,3179.075928 4376.325684,3180.001221 4374.442871,3180.003174 
	C4263.925293,3180.116455 4153.407715,3180.161865 4042.890137,3180.148926 
	C4040.322998,3180.148438 4037.755615,3179.410400 4034.990723,3178.986084 
	C4030.690430,3171.966553 4032.420410,3164.460693 4032.410156,3157.375488 
	C4032.273682,3063.500488 4032.326416,2969.625488 4032.310303,2875.750244 
	C4032.308105,2862.435303 4032.194580,2849.120605 4032.029785,2833.969238 
	C4031.927002,2832.132812 4031.707764,2832.362793 4031.595703,2832.475098 
z"/>
<path fill="#00BE63" opacity="1.000000" stroke="none" 
	d="
M3116.004639,1911.971191 
	C3121.280273,1911.585938 3126.555420,1910.867798 3131.831299,1910.864868 
	C3236.010010,1910.805664 3340.188721,1910.827026 3444.367432,1910.849487 
	C3447.018799,1910.850098 3449.670410,1911.046875 3454.707031,1912.248047 
	C3457.846191,1914.242432 3458.639160,1915.105469 3459.470947,1915.932861 
	C3459.763184,1923.884155 3460.303955,1931.835327 3460.310547,1939.786865 
	C3460.396240,2045.410034 3460.406494,2151.033203 3459.989014,2258.528564 
	C3459.541992,2260.400879 3459.764160,2260.193115 3459.869141,2260.092285 
	C3384.764893,2259.899414 3309.555908,2259.795410 3234.346924,2259.720947 
	C3201.067871,2259.687988 3167.789062,2259.750977 3134.510010,2259.683594 
	C3127.956299,2259.670410 3121.403809,2259.258789 3113.798340,2258.994385 
	C3113.018799,2254.538330 3111.882080,2250.813232 3111.800781,2247.065186 
	C3111.540527,2235.090088 3111.647705,2223.106445 3111.656006,2211.126221 
	C3111.724609,2113.953125 3111.802979,2016.779907 3112.812500,1917.122803 
	C3114.540527,1913.784546 3115.292969,1912.895264 3116.004639,1911.971191 
z"/>
<path fill="#00BE62" opacity="1.000000" stroke="none" 
	d="
M3114.932617,1912.034302 
	C3115.292969,1912.895264 3114.540527,1913.784546 3113.137695,1915.265869 
	C3112.972656,1914.627808 3113.416748,1913.362671 3114.932617,1912.034302 
z"/>
<path fill="#00BE62" opacity="1.000000" stroke="none" 
	d="
M3459.498047,1914.853516 
	C3458.639160,1915.105469 3457.846191,1914.242432 3456.542480,1912.657471 
	C3457.170410,1912.572021 3458.347900,1913.173096 3459.498047,1914.853516 
z"/>
</svg>